<svg width="447" height="40" viewBox="0 0 447 40" fill="none" xmlns="http://www.w3.org/2000/svg">
<path d="M25.872 5.736L25.104 11.784H16.896V39H9.024V11.784H0.432V5.736H25.872ZM46.7633 31.608C46.7633 32.568 46.8913 33.272 47.1473 33.72C47.4353 34.168 47.8833 34.504 48.4913 34.728L46.9073 39.672C45.3393 39.544 44.0593 39.208 43.0673 38.664C42.0753 38.088 41.3073 37.192 40.7633 35.976C39.0993 38.536 36.5393 39.816 33.0833 39.816C30.5553 39.816 28.5393 39.08 27.0353 37.608C25.5313 36.136 24.7793 34.216 24.7793 31.848C24.7793 29.064 25.8033 26.936 27.8513 25.464C29.8993 23.992 32.8593 23.256 36.7313 23.256H39.3233V22.152C39.3233 20.648 39.0033 19.624 38.3633 19.08C37.7233 18.504 36.6033 18.216 35.0033 18.216C34.1713 18.216 33.1633 18.344 31.9793 18.6C30.7953 18.824 29.5793 19.144 28.3313 19.56L26.6033 14.568C28.2033 13.96 29.8353 13.496 31.4993 13.176C33.1953 12.856 34.7633 12.696 36.2032 12.696C39.8513 12.696 42.5233 13.448 44.2193 14.952C45.9153 16.456 46.7633 18.712 46.7633 21.72V31.608ZM35.2913 34.392C37.0193 34.392 38.3633 33.576 39.3233 31.944V27.432H37.4513C35.7233 27.432 34.4273 27.736 33.5633 28.344C32.7313 28.952 32.3153 29.896 32.3153 31.176C32.3153 32.2 32.5713 33 33.0833 33.576C33.6273 34.12 34.3633 34.392 35.2913 34.392ZM80.9801 12.696C82.9961 12.696 84.6121 13.384 85.8281 14.76C87.0441 16.104 87.6521 17.976 87.6521 20.376V39H80.0681V21.672C80.0681 19.4 79.3481 18.264 77.9081 18.264C77.1081 18.264 76.4041 18.536 75.7961 19.08C75.1881 19.624 74.5961 20.456 74.0201 21.576V39H66.4361V21.672C66.4361 19.4 65.7161 18.264 64.2761 18.264C63.5081 18.264 62.8041 18.552 62.1641 19.128C61.5561 19.672 60.9641 20.488 60.3881 21.576V39H52.8041V13.512H59.4281L59.9561 16.488C60.9481 15.208 62.0361 14.264 63.2201 13.656C64.4361 13.016 65.8121 12.696 67.3481 12.696C68.7881 12.696 70.0201 13.048 71.0441 13.752C72.1001 14.456 72.8681 15.448 73.3481 16.728C74.3721 15.352 75.4921 14.344 76.7081 13.704C77.9561 13.032 79.3801 12.696 80.9801 12.696ZM113.607 31.608C113.607 32.568 113.735 33.272 113.991 33.72C114.279 34.168 114.727 34.504 115.335 34.728L113.751 39.672C112.183 39.544 110.903 39.208 109.911 38.664C108.919 38.088 108.151 37.192 107.607 35.976C105.943 38.536 103.383 39.816 99.927 39.816C97.399 39.816 95.383 39.08 93.879 37.608C92.375 36.136 91.623 34.216 91.623 31.848C91.623 29.064 92.647 26.936 94.695 25.464C96.743 23.992 99.703 23.256 103.575 23.256H106.167V22.152C106.167 20.648 105.847 19.624 105.207 19.08C104.567 18.504 103.447 18.216 101.847 18.216C101.015 18.216 100.007 18.344 98.823 18.6C97.639 18.824 96.423 19.144 95.175 19.56L93.447 14.568C95.047 13.96 96.679 13.496 98.343 13.176C100.039 12.856 101.607 12.696 103.047 12.696C106.695 12.696 109.367 13.448 111.063 14.952C112.759 16.456 113.607 18.712 113.607 21.72V31.608ZM102.135 34.392C103.863 34.392 105.207 33.576 106.167 31.944V27.432H104.295C102.567 27.432 101.271 27.736 100.407 28.344C99.575 28.952 99.159 29.896 99.159 31.176C99.159 32.2 99.415 33 99.927 33.576C100.471 34.12 101.207 34.392 102.135 34.392ZM133.472 12.792C134.4 12.792 135.248 12.904 136.016 13.128L134.816 20.472C133.856 20.248 133.088 20.136 132.512 20.136C131.008 20.136 129.856 20.664 129.056 21.72C128.288 22.744 127.68 24.296 127.232 26.376V39H119.648V13.512H126.272L126.896 18.456C127.472 16.696 128.336 15.32 129.488 14.328C130.672 13.304 132 12.792 133.472 12.792ZM157.482 31.608C157.482 32.568 157.61 33.272 157.866 33.72C158.154 34.168 158.602 34.504 159.21 34.728L157.626 39.672C156.058 39.544 154.778 39.208 153.786 38.664C152.794 38.088 152.026 37.192 151.482 35.976C149.818 38.536 147.258 39.816 143.802 39.816C141.274 39.816 139.258 39.08 137.754 37.608C136.25 36.136 135.498 34.216 135.498 31.848C135.498 29.064 136.522 26.936 138.57 25.464C140.618 23.992 143.578 23.256 147.45 23.256H150.042V22.152C150.042 20.648 149.722 19.624 149.082 19.08C148.442 18.504 147.322 18.216 145.722 18.216C144.89 18.216 143.882 18.344 142.698 18.6C141.514 18.824 140.298 19.144 139.05 19.56L137.322 14.568C138.922 13.96 140.554 13.496 142.218 13.176C143.914 12.856 145.482 12.696 146.922 12.696C150.57 12.696 153.242 13.448 154.938 14.952C156.634 16.456 157.482 18.712 157.482 21.72V31.608ZM146.01 34.392C147.738 34.392 149.082 33.576 150.042 31.944V27.432H148.17C146.442 27.432 145.146 27.736 144.282 28.344C143.45 28.952 143.034 29.896 143.034 31.176C143.034 32.2 143.29 33 143.802 33.576C144.346 34.12 145.082 34.392 146.01 34.392ZM208.082 39H200.354L199.778 25.992C199.618 22.888 199.538 20.12 199.538 17.688C199.538 15.832 199.586 14.072 199.682 12.408L194.546 35.496H187.106L181.634 12.408C181.826 15.192 181.922 17.816 181.922 20.28C181.922 22.136 181.874 24.072 181.778 26.088L181.202 39H173.521L176.018 5.736H185.954L190.946 28.296L195.602 5.736H205.586L208.082 39ZM234.872 25.752C234.872 26.808 234.824 27.72 234.728 28.488H218.936C219.192 30.632 219.8 32.136 220.76 33C221.72 33.864 223.048 34.296 224.744 34.296C225.768 34.296 226.76 34.12 227.72 33.768C228.68 33.384 229.72 32.808 230.84 32.04L233.96 36.264C230.984 38.632 227.672 39.816 224.024 39.816C219.896 39.816 216.728 38.6 214.52 36.168C212.312 33.736 211.208 30.472 211.208 26.376C211.208 23.784 211.672 21.464 212.6 19.416C213.528 17.336 214.888 15.704 216.68 14.52C218.472 13.304 220.616 12.696 223.112 12.696C226.792 12.696 229.672 13.848 231.752 16.152C233.832 18.456 234.872 21.656 234.872 25.752ZM227.432 23.592C227.368 19.688 225.992 17.736 223.304 17.736C221.992 17.736 220.968 18.216 220.232 19.176C219.528 20.136 219.096 21.72 218.936 23.928H227.432V23.592ZM254.06 12.696C256.268 12.696 257.996 13.368 259.244 14.712C260.492 16.056 261.116 17.944 261.116 20.376V39H253.532V21.672C253.532 20.392 253.324 19.512 252.908 19.032C252.524 18.52 251.932 18.264 251.132 18.264C249.596 18.264 248.124 19.368 246.716 21.576V39H239.132V13.512H245.756L246.284 16.536C247.372 15.256 248.54 14.296 249.788 13.656C251.068 13.016 252.492 12.696 254.06 12.696ZM289.683 3.384V39H282.963L282.579 36.024C280.787 38.552 278.371 39.816 275.331 39.816C272.163 39.816 269.747 38.6 268.083 36.168C266.451 33.736 265.635 30.408 265.635 26.184C265.635 23.592 266.067 21.272 266.931 19.224C267.795 17.176 269.011 15.576 270.579 14.424C272.179 13.272 274.003 12.696 276.051 12.696C278.483 12.696 280.499 13.496 282.099 15.096V2.568L289.683 3.384ZM277.683 34.248C279.443 34.248 280.915 33.288 282.099 31.368V20.376C281.491 19.64 280.867 19.096 280.227 18.744C279.619 18.392 278.915 18.216 278.115 18.216C276.707 18.216 275.587 18.872 274.755 20.184C273.923 21.496 273.507 23.512 273.507 26.232C273.507 29.208 273.859 31.288 274.563 32.472C275.299 33.656 276.339 34.248 277.683 34.248ZM317.841 25.752C317.841 26.808 317.793 27.72 317.697 28.488H301.905C302.161 30.632 302.769 32.136 303.729 33C304.689 33.864 306.017 34.296 307.713 34.296C308.737 34.296 309.729 34.12 310.689 33.768C311.649 33.384 312.689 32.808 313.809 32.04L316.929 36.264C313.953 38.632 310.641 39.816 306.993 39.816C302.865 39.816 299.697 38.6 297.489 36.168C295.281 33.736 294.177 30.472 294.177 26.376C294.177 23.784 294.641 21.464 295.569 19.416C296.497 17.336 297.857 15.704 299.649 14.52C301.441 13.304 303.585 12.696 306.081 12.696C309.761 12.696 312.641 13.848 314.721 16.152C316.801 18.456 317.841 21.656 317.841 25.752ZM310.401 23.592C310.337 19.688 308.961 17.736 306.273 17.736C304.961 17.736 303.937 18.216 303.201 19.176C302.497 20.136 302.065 21.72 301.905 23.928H310.401V23.592ZM331.077 12.696C332.901 12.696 334.613 12.968 336.213 13.512C337.813 14.056 339.221 14.824 340.437 15.816L337.653 20.088C335.573 18.776 333.477 18.12 331.365 18.12C330.373 18.12 329.605 18.296 329.061 18.648C328.549 18.968 328.293 19.432 328.293 20.04C328.293 20.52 328.405 20.92 328.629 21.24C328.885 21.528 329.381 21.832 330.117 22.152C330.853 22.472 331.989 22.856 333.525 23.304C336.181 24.072 338.149 25.08 339.429 26.328C340.741 27.544 341.397 29.24 341.397 31.416C341.397 33.144 340.901 34.648 339.909 35.928C338.917 37.176 337.557 38.136 335.829 38.808C334.101 39.48 332.181 39.816 330.069 39.816C327.925 39.816 325.925 39.48 324.069 38.808C322.245 38.136 320.693 37.208 319.413 36.024L323.109 31.896C325.253 33.56 327.509 34.392 329.877 34.392C331.029 34.392 331.925 34.184 332.565 33.768C333.237 33.352 333.573 32.76 333.573 31.992C333.573 31.384 333.445 30.904 333.189 30.552C332.933 30.2 332.437 29.88 331.701 29.592C330.965 29.272 329.797 28.888 328.197 28.44C325.669 27.704 323.781 26.68 322.533 25.368C321.285 24.056 320.661 22.424 320.661 20.472C320.661 19 321.077 17.688 321.909 16.536C322.773 15.352 323.989 14.424 325.557 13.752C327.157 13.048 328.997 12.696 331.077 12.696ZM366.103 5.736C371.319 5.736 375.495 6.92 378.631 9.288C381.799 11.624 383.383 15.928 383.383 22.2C383.383 28.376 381.847 32.728 378.775 35.256C375.703 37.752 371.719 39 366.823 39H356.839V5.736H366.103ZM364.711 11.448V33.288H367.303C369.895 33.288 371.863 32.488 373.207 30.888C374.551 29.256 375.223 26.36 375.223 22.2C375.223 19.352 374.887 17.144 374.215 15.576C373.543 14.008 372.631 12.936 371.479 12.36C370.327 11.752 368.903 11.448 367.207 11.448H364.711ZM395.544 13.512V39H387.96V13.512H395.544ZM391.704 0.0719976C393.016 0.0719976 394.088 0.487998 394.92 1.32C395.784 2.12 396.216 3.144 396.216 4.392C396.216 5.64 395.784 6.68 394.92 7.512C394.088 8.312 393.016 8.712 391.704 8.712C390.392 8.712 389.32 8.312 388.488 7.512C387.656 6.68 387.24 5.64 387.24 4.392C387.24 3.144 387.656 2.12 388.488 1.32C389.32 0.487998 390.392 0.0719976 391.704 0.0719976ZM421.763 31.608C421.763 32.568 421.891 33.272 422.147 33.72C422.435 34.168 422.883 34.504 423.491 34.728L421.907 39.672C420.339 39.544 419.059 39.208 418.067 38.664C417.075 38.088 416.307 37.192 415.763 35.976C414.099 38.536 411.539 39.816 408.083 39.816C405.555 39.816 403.539 39.08 402.035 37.608C400.531 36.136 399.779 34.216 399.779 31.848C399.779 29.064 400.803 26.936 402.851 25.464C404.899 23.992 407.859 23.256 411.731 23.256H414.323V22.152C414.323 20.648 414.003 19.624 413.363 19.08C412.723 18.504 411.603 18.216 410.003 18.216C409.171 18.216 408.163 18.344 406.979 18.6C405.795 18.824 404.579 19.144 403.331 19.56L401.603 14.568C403.203 13.96 404.835 13.496 406.499 13.176C408.195 12.856 409.763 12.696 411.203 12.696C414.851 12.696 417.523 13.448 419.219 14.952C420.915 16.456 421.763 18.712 421.763 21.72V31.608ZM410.291 34.392C412.019 34.392 413.363 33.576 414.323 31.944V27.432H412.451C410.723 27.432 409.427 27.736 408.563 28.344C407.731 28.952 407.315 29.896 407.315 31.176C407.315 32.2 407.571 33 408.083 33.576C408.627 34.12 409.363 34.392 410.291 34.392ZM436.311 12.696C438.135 12.696 439.847 12.968 441.447 13.512C443.047 14.056 444.455 14.824 445.671 15.816L442.887 20.088C440.807 18.776 438.711 18.12 436.599 18.12C435.607 18.12 434.839 18.296 434.295 18.648C433.783 18.968 433.527 19.432 433.527 20.04C433.527 20.52 433.639 20.92 433.863 21.24C434.119 21.528 434.615 21.832 435.351 22.152C436.087 22.472 437.223 22.856 438.759 23.304C441.415 24.072 443.383 25.08 444.663 26.328C445.975 27.544 446.631 29.24 446.631 31.416C446.631 33.144 446.135 34.648 445.143 35.928C444.151 37.176 442.791 38.136 441.063 38.808C439.335 39.48 437.415 39.816 435.303 39.816C433.159 39.816 431.159 39.48 429.303 38.808C427.479 38.136 425.927 37.208 424.647 36.024L428.343 31.896C430.487 33.56 432.743 34.392 435.111 34.392C436.263 34.392 437.159 34.184 437.799 33.768C438.471 33.352 438.807 32.76 438.807 31.992C438.807 31.384 438.679 30.904 438.423 30.552C438.167 30.2 437.671 29.88 436.935 29.592C436.199 29.272 435.031 28.888 433.431 28.44C430.903 27.704 429.015 26.68 427.767 25.368C426.519 24.056 425.895 22.424 425.895 20.472C425.895 19 426.311 17.688 427.143 16.536C428.007 15.352 429.223 14.424 430.791 13.752C432.391 13.048 434.231 12.696 436.311 12.696Z" fill="black"/>
</svg>
